<svg width="103" height="32" viewBox="0 0 103 32" fill="none" xmlns="http://www.w3.org/2000/svg">
<path d="M0 32H102.095V0H0V32Z" fill="#00488E"/>
<path d="M0 32H102.095V28.9524H0V32Z" fill="#F7A800"/>
<path d="M8.30808 11.3169H11.5794L11.7542 9.75058L6.60121 9.73638L5.27051 19.3505H7.15372L7.78146 15.0776H11.0674L11.2858 13.4947H8.00149L8.30808 11.3169Z" fill="white"/>
<path d="M18.2261 11.3049L18.4453 9.73618L12.777 9.75038L11.4795 19.3897C11.4795 19.3897 17.0846 19.486 17.0846 19.3755C17.0846 19.269 17.2764 17.8487 17.2764 17.8487H13.5245L13.9039 15.0908H17.6703L17.9033 13.4811H14.166L14.4718 11.3049H18.2261Z" fill="white"/>
<path d="M33.577 11.3049L33.7978 9.73618L28.1312 9.75038L26.832 19.3897C26.832 19.3897 32.438 19.486 32.438 19.3755C32.438 19.269 32.6289 17.8487 32.6289 17.8487H28.8746L29.2556 15.0908H33.0228L33.2566 13.4811H29.5185L29.8243 11.3049H33.577Z" fill="white"/>
<path d="M22.574 17.837C22.574 17.837 20.7531 17.9458 20.4165 17.8733L20.4133 17.8938L20.3437 17.8914L21.2214 11.3271L22.612 11.3042C22.612 11.3042 24.602 11.3042 25.1747 13.4655L25.1836 13.5057C25.7434 15.708 24.094 17.6563 22.574 17.837ZM22.1186 9.76313L19.5712 9.75288L18.2842 19.3899H20.1423L20.1431 19.3843L20.2661 19.382C20.5864 19.4096 22.7544 19.5721 24.1725 18.8722C24.1725 18.8722 27.0442 17.8733 27.0167 13.8774C27.0167 13.8774 26.8492 10.209 22.1186 9.76313Z" fill="white"/>
<path d="M36.3194 13.9777L36.6769 11.2948C36.6769 11.2948 38.5294 11.0076 38.7713 11.9671C38.7713 11.9671 39.196 13.7496 37.2675 13.9856L36.3194 13.9777ZM40.6027 12.4177C40.6027 12.4177 40.6472 9.90606 37.7132 9.76245H34.9774L33.6758 19.4018H35.5946L36.1261 15.4256L36.3784 15.4406L36.3793 15.4391L38.7495 19.4018H40.7127L38.3062 15.2568C38.3062 15.2568 40.4045 14.9301 40.6027 12.4177Z" fill="white"/>
<path d="M45.3325 15.7791L46.8525 13.3187L47.5878 15.7925L45.3325 15.7791ZM40.9424 19.3796H43.1071L44.3739 17.3312H48.0457L48.6597 19.3962H50.6303L47.3573 9.3552L40.9424 19.3796Z" fill="white"/>
<path d="M54.177 9.74878L52.3545 9.76299L51.0205 19.3668H56.1492L56.3442 17.8423H53.1674L54.177 9.74878Z" fill="white"/>
<path d="M71.8055 15.7791L73.3255 13.3187L74.06 15.7925L71.8055 15.7791ZM67.417 19.3796H69.5801L70.8469 17.3312H74.5179L75.1326 19.3962H77.1024L73.8294 9.3552L67.417 19.3796Z" fill="white"/>
<path d="M65.5697 17.4857C65.5697 17.4857 65.0779 18.0988 63.1857 17.8889L63.1307 17.8944L63.5215 15.109C63.8377 15.0877 64.5795 15.0537 64.8311 15.1903C64.8311 15.1903 66.6844 15.5769 65.5697 17.4857ZM64.057 11.3001L64.0934 11.1431C64.0934 11.1431 65.2477 11.0736 65.6643 11.6513C65.6643 11.6513 66.4773 13.0014 64.7373 13.6318L63.7229 13.6815L64.057 11.3001ZM66.4029 14.3657C66.4029 14.3657 67.9334 13.2633 67.5362 11.8099C67.5362 11.8099 67.3485 9.95316 64.7551 9.75984H62.2587L60.9717 19.3944H62.6559H62.9196L62.9236 19.3668C63.1639 19.3779 63.477 19.3929 63.8677 19.4126C63.8677 19.4126 66.3819 19.4126 67.2353 18.2037C67.2353 18.2037 68.8993 16.0843 66.4029 14.3657Z" fill="white"/>
<path d="M86.4169 9.74166L85.6048 15.6645L79.1324 9.32187L77.8486 19.3771H79.6631L80.5529 12.8609L86.967 19.5167L88.3673 9.74166H86.4169Z" fill="white"/>
<path d="M96.8227 9.76041H94.6669L91.0323 13.1258L91.4878 9.76041L89.5382 9.74305L88.2334 19.3958H90.1838L90.7015 15.5656L91.0089 15.2745L94.3821 19.3603H96.597L92.4132 13.9417L96.8227 9.76041Z" fill="white"/>
<path d="M6.89269 23.0412C6.73252 22.7808 6.53757 22.4731 6.3054 22.1188L5.96889 21.6177C5.81195 21.3873 5.70275 21.2319 5.64612 21.1482C5.58545 21.0662 5.54824 21.0149 5.53125 20.9967C5.62751 21.0078 5.73834 21.0125 5.86453 21.0125C5.98992 21.0125 6.10236 21.0078 6.19862 20.9967C6.2326 21.0898 6.27143 21.1766 6.3143 21.2603C6.35637 21.3416 6.42836 21.4607 6.5222 21.6177L6.72282 21.957C6.90159 22.249 7.05934 22.4999 7.20009 22.7114L7.19928 22.7067C7.33195 22.5078 7.47998 22.2719 7.64015 22.0004L7.86747 21.6177C7.9516 21.4812 8.0155 21.3684 8.05676 21.2855C8.09801 21.2035 8.13927 21.108 8.17972 20.9967C8.25009 21.0078 8.33018 21.0125 8.41754 21.0125C8.50734 21.0125 8.5858 21.0078 8.65456 20.9967C8.63677 21.0149 8.59956 21.0662 8.5405 21.1482C8.48145 21.2319 8.37386 21.3873 8.21774 21.6177L7.90468 22.0809C7.69112 22.4052 7.5083 22.6909 7.35541 22.9386V23.2235C7.35541 23.6102 7.35703 23.8879 7.36269 24.052C7.36835 24.2169 7.37725 24.3542 7.39585 24.4639C7.31496 24.4552 7.22436 24.4489 7.12324 24.4489C7.02212 24.4489 6.93314 24.4552 6.85225 24.4639C6.86924 24.3542 6.87813 24.2169 6.8846 24.052C6.88865 23.8879 6.89269 23.6102 6.89269 23.2235V23.0412Z" fill="white"/>
<path d="M11.1209 24.2981C10.6816 24.2981 10.3305 24.1601 10.066 23.8815C9.8023 23.6038 9.66802 23.2345 9.66802 22.7713C9.66802 22.2836 9.8023 21.8946 10.066 21.6011C10.3305 21.3083 10.6816 21.1616 11.1209 21.1616C11.5634 21.1616 11.9177 21.3005 12.1814 21.5782C12.4443 21.8544 12.577 22.2252 12.577 22.6892C12.577 23.1769 12.4443 23.5675 12.1814 23.8594C11.9177 24.153 11.5634 24.2981 11.1209 24.2981ZM11.0918 24.5167C11.7009 24.5167 12.1927 24.3463 12.5705 24.0046C12.9491 23.6653 13.1368 23.2195 13.1368 22.6695C13.1368 22.1558 12.9539 21.7415 12.5883 21.4212C12.2218 21.1032 11.7421 20.9446 11.15 20.9446C10.5433 20.9446 10.0515 21.1158 9.67449 21.4559C9.29671 21.7991 9.10742 22.2426 9.10742 22.7902C9.10742 23.3039 9.29105 23.7213 9.6575 24.0385C10.0256 24.3565 10.5028 24.5167 11.0918 24.5167Z" fill="white"/>
<path d="M17.1545 22.9481C17.1545 23.4618 17.0218 23.85 16.7589 24.1159C16.4968 24.3826 16.1101 24.516 15.6021 24.516C15.0868 24.516 14.7034 24.4032 14.4558 24.1751C14.2075 23.9471 14.0837 23.5951 14.0821 23.1193V22.765L14.0732 21.6146C14.0692 21.4118 14.0659 21.2697 14.0603 21.1861C14.0562 21.104 14.0514 21.0409 14.04 20.9959C14.1242 21.007 14.2172 21.0125 14.3207 21.0125C14.4251 21.0125 14.5181 21.007 14.5998 20.9959C14.5909 21.0425 14.582 21.1072 14.578 21.1908C14.5723 21.2721 14.5667 21.4141 14.5594 21.6146C14.5489 21.9547 14.5432 22.3366 14.5432 22.7595V22.9655C14.5448 23.401 14.6403 23.7277 14.8271 23.9368C15.014 24.1483 15.302 24.2532 15.687 24.2532C16.0939 24.2532 16.3892 24.142 16.5769 23.9195C16.7646 23.6969 16.856 23.3426 16.8535 22.8613V22.7627L16.8471 21.6146C16.8438 21.4062 16.8414 21.2595 16.839 21.1766C16.8374 21.0938 16.8341 21.0338 16.8301 20.9959C16.8883 21.007 16.9522 21.0125 17.0234 21.0125C17.0954 21.0125 17.1617 21.007 17.2184 20.9959C17.2054 21.0527 17.1965 21.1245 17.1909 21.2058C17.1836 21.2895 17.1763 21.4268 17.169 21.6146C17.1593 21.9547 17.1545 22.3366 17.1545 22.7611V22.9481Z" fill="white"/>
<path d="M18.7802 21.2473C18.9169 21.2386 19.0682 21.2315 19.2324 21.2299C19.5163 21.2299 19.7331 21.2836 19.8852 21.387C20.0356 21.4919 20.1109 21.6418 20.1109 21.8399C20.1109 22.0506 20.0122 22.2218 19.8156 22.348C19.619 22.4759 19.3561 22.5374 19.0277 22.5374C18.942 22.5366 18.8586 22.5398 18.7802 22.5453V21.2473ZM18.2932 24.2908C18.2883 24.376 18.2819 24.4336 18.2754 24.4628C18.3571 24.4541 18.4485 24.4486 18.552 24.4486C18.6548 24.4486 18.7478 24.4541 18.8271 24.4628C18.8214 24.4312 18.815 24.3736 18.8117 24.2908C18.8077 24.2095 18.802 24.0603 18.7947 23.8441C18.7891 23.5246 18.785 23.1632 18.785 22.7647H18.7802H18.9622C19.1482 22.9675 19.3578 23.2073 19.5915 23.4843L19.8941 23.8441C20.0373 24.0098 20.1416 24.1345 20.2047 24.2174C20.2686 24.2994 20.3236 24.3815 20.3689 24.4628C20.4676 24.4541 20.5825 24.4486 20.7087 24.4486C20.8357 24.4486 20.9489 24.4541 21.0468 24.4628C21.025 24.447 20.9781 24.3957 20.9012 24.3144C20.8244 24.2308 20.6868 24.0753 20.4797 23.8441L20.1877 23.5088C19.9321 23.216 19.7129 22.958 19.5309 22.7315C19.7913 22.6913 20.0178 22.6148 20.2071 22.5027C20.5 22.3267 20.648 22.0979 20.648 21.8154C20.648 21.5432 20.5477 21.338 20.3495 21.2007C20.1505 21.0642 19.852 20.9964 19.4532 20.9964C19.3893 20.9964 19.3165 20.9971 19.234 21.0003C19.1531 21.0019 19.0633 21.0058 18.9622 21.0137C18.8999 21.0145 18.8117 21.0145 18.6985 21.0137C18.5828 21.0114 18.4436 21.005 18.2754 20.9964C18.2819 21.0287 18.2883 21.0847 18.2924 21.1676C18.2948 21.2512 18.3013 21.4004 18.3077 21.6158C18.3142 21.9456 18.3175 22.3165 18.3175 22.7315C18.3175 23.1411 18.3142 23.5104 18.3077 23.8433C18.3013 24.0603 18.2972 24.2095 18.2932 24.2908Z" fill="white"/>
<path d="M23.7952 21.265C23.9335 21.2516 24.0888 21.2445 24.2619 21.2445C24.5572 21.2445 24.7813 21.3005 24.9325 21.4086C25.0838 21.5183 25.1598 21.6809 25.1598 21.8955C25.1598 22.1227 25.0692 22.3034 24.8872 22.4407C24.7028 22.5757 24.4601 22.6435 24.1543 22.6435C24.0265 22.6435 23.906 22.6388 23.7952 22.6285V21.265ZM23.309 24.2895C23.3033 24.3716 23.2977 24.4316 23.292 24.4639C23.3729 24.4545 23.4651 24.4489 23.567 24.4489C23.6714 24.4489 23.7628 24.4545 23.8445 24.4639C23.8372 24.4324 23.8316 24.3756 23.8275 24.2919C23.8243 24.2098 23.8178 24.0607 23.8113 23.8437C23.8032 23.5494 23.7992 23.2188 23.8008 22.8542H23.7952C23.9359 22.8732 24.0928 22.881 24.2692 22.8779C24.723 22.8779 25.0749 22.7903 25.3224 22.6143C25.5716 22.4384 25.6962 22.1906 25.6962 21.8687C25.6962 21.5728 25.5902 21.3542 25.3807 21.2106C25.1695 21.067 24.8468 20.9959 24.4091 20.9959C24.342 20.9959 24.2676 20.9983 24.1891 20.9999C24.1082 21.0015 24.0208 21.0054 23.927 21.0109C23.8542 21.0149 23.7636 21.0173 23.6584 21.0173C23.5541 21.0173 23.4311 21.0149 23.292 21.0109C23.2977 21.0449 23.3033 21.1017 23.309 21.1845C23.3122 21.2674 23.3179 21.4165 23.3252 21.6312C23.3308 21.9594 23.3349 22.3279 23.3324 22.7327C23.3324 23.1422 23.3308 23.5115 23.3252 23.8437C23.3179 24.0583 23.3122 24.2067 23.309 24.2895Z" fill="white"/>
<path d="M26.3242 24.4866C26.3315 24.455 26.3372 24.3967 26.3404 24.3138C26.3436 24.2309 26.3493 24.0834 26.3566 23.868C26.3622 23.531 26.3647 23.1523 26.3647 22.7293C26.3647 22.3056 26.3622 21.9269 26.3566 21.5923C26.3493 21.3792 26.3436 21.2293 26.3404 21.1472C26.3372 21.0652 26.3315 21.0076 26.3242 20.9736C26.3881 20.9855 26.4933 20.9942 26.6413 21.0021C26.7902 21.0092 26.9398 21.0123 27.0911 21.0123H27.502C27.6654 21.0123 27.8127 21.0092 27.9421 21.0021C28.0731 20.9942 28.1864 20.9823 28.281 20.9665L28.2648 21.1417L28.281 21.313C28.2195 21.3003 28.112 21.2893 27.955 21.279C27.7997 21.2727 27.6484 21.2672 27.502 21.2672H27.3103C27.1445 21.2656 26.9892 21.2688 26.8436 21.2743L26.829 22.5329L27.3079 22.5313C27.4672 22.5313 27.6306 22.5265 27.7981 22.5179C27.9639 22.5092 28.0812 22.4997 28.1427 22.4863L28.1281 22.6599L28.1427 22.8311C28.0812 22.8185 27.9639 22.809 27.7981 22.7996C27.6306 22.7917 27.4672 22.7869 27.3079 22.7869L26.8306 22.7854C26.829 23.3235 26.833 23.7914 26.8436 24.1875L27.2084 24.1923H27.3904C27.5538 24.1923 27.7277 24.1875 27.9041 24.1773C28.0853 24.1655 28.209 24.1536 28.281 24.141C28.2705 24.1923 28.2648 24.2515 28.2648 24.3193L28.281 24.4929C28.205 24.4819 28.0901 24.4708 27.9332 24.4614C27.7771 24.4535 27.6323 24.4487 27.502 24.4487H27.0911C26.9528 24.4487 26.8088 24.4535 26.6591 24.4598C26.5119 24.4669 26.4011 24.4763 26.3242 24.4866Z" fill="white"/>
<path d="M29.7336 21.2473C29.8703 21.2386 30.0216 21.2315 30.1874 21.2299C30.4722 21.2299 30.6866 21.2836 30.8386 21.387C30.9891 21.4919 31.0651 21.6418 31.0651 21.8399C31.0651 22.0506 30.9673 22.2218 30.7707 22.348C30.5733 22.4759 30.3104 22.5374 29.9812 22.5374C29.8954 22.5366 29.8145 22.5398 29.7336 22.5453V21.2473ZM29.2466 24.2908C29.2418 24.376 29.2361 24.4336 29.2305 24.4628C29.3106 24.4541 29.4036 24.4486 29.5055 24.4486C29.6082 24.4486 29.7013 24.4541 29.783 24.4628C29.7757 24.4312 29.77 24.3736 29.766 24.2908C29.7611 24.2095 29.7563 24.0603 29.7506 23.8441C29.7425 23.5246 29.7393 23.1632 29.7393 22.7647H29.7336H29.9165C30.1041 22.9675 30.3112 23.2073 30.5458 23.4843L30.8492 23.8441C30.9923 24.0098 31.0967 24.1345 31.159 24.2174C31.2221 24.2994 31.2779 24.3815 31.3224 24.4628C31.4227 24.4541 31.5359 24.4486 31.6638 24.4486C31.7891 24.4486 31.9024 24.4541 32.0027 24.4628C31.9809 24.447 31.9315 24.3957 31.8571 24.3144C31.7802 24.2308 31.6403 24.0753 31.4332 23.8441L31.1412 23.5088C30.8856 23.216 30.6663 22.958 30.4851 22.7315C30.7472 22.6913 30.9713 22.6148 31.1606 22.5027C31.4559 22.3267 31.6015 22.0979 31.6015 21.8154C31.6015 21.5432 31.502 21.338 31.303 21.2007C31.1048 21.0642 30.8055 20.9964 30.4067 20.9964C30.3428 20.9964 30.27 20.9971 30.1891 21.0003C30.1074 21.0019 30.0176 21.0058 29.9165 21.0137C29.8542 21.0145 29.766 21.0145 29.6519 21.0137C29.5395 21.0114 29.3987 21.005 29.2305 20.9964C29.2361 21.0287 29.2418 21.0847 29.2458 21.1676C29.2507 21.2512 29.2564 21.4004 29.2612 21.6158C29.2693 21.9456 29.2709 22.3165 29.2709 22.7315C29.2709 23.1411 29.2693 23.5104 29.2612 23.8433C29.2564 24.0603 29.2507 24.2095 29.2466 24.2908Z" fill="white"/>
<path d="M32.6036 23.8449C32.6093 23.5127 32.6117 23.1371 32.6117 22.7189C32.6117 22.3015 32.6093 21.9275 32.6036 21.5937C32.5964 21.3791 32.5907 21.2299 32.5867 21.1463C32.5818 21.0658 32.5761 21.0074 32.5713 20.9743C32.6352 20.9853 32.7549 20.994 32.9288 21.0027C33.1044 21.009 33.2872 21.0129 33.4749 21.0129H33.8049C33.9707 21.0129 34.1155 21.009 34.2458 21.0027C34.3752 20.994 34.4885 20.9829 34.5839 20.9672L34.571 21.1408L34.5839 21.3136C34.5249 21.3002 34.4173 21.2891 34.262 21.2796C34.105 21.2717 33.9538 21.267 33.8049 21.267H33.5873C33.411 21.2654 33.2492 21.2686 33.0955 21.2741C33.0866 21.6245 33.0817 22.0348 33.0793 22.5059L33.6278 22.5011C33.792 22.5011 33.9578 22.4972 34.1261 22.4885C34.2919 22.479 34.4043 22.468 34.4626 22.4569L34.4464 22.6305L34.4626 22.8018C34.4189 22.7923 34.3137 22.7852 34.1471 22.7749C33.9796 22.7663 33.8065 22.7607 33.6278 22.7568L33.0793 22.7489C33.0793 23.1553 33.0825 23.5214 33.0906 23.8449C33.0979 24.0603 33.1036 24.2111 33.1068 24.2923C33.11 24.3768 33.1157 24.4336 33.123 24.4636C33.0413 24.4541 32.9499 24.4486 32.8463 24.4486C32.7444 24.4486 32.653 24.4541 32.5713 24.4636C32.5761 24.4312 32.5842 24.3728 32.5891 24.2884C32.5931 24.2071 32.5964 24.0603 32.6036 23.8449Z" fill="white"/>
<path d="M35.3701 24.4866C35.3758 24.455 35.3806 24.3967 35.3847 24.3138C35.3895 24.2309 35.396 24.0834 35.4017 23.868C35.4065 23.531 35.4106 23.1523 35.4106 22.7293C35.4106 22.3056 35.4065 21.9269 35.4017 21.5923C35.396 21.3792 35.3895 21.2293 35.3847 21.1472C35.3806 21.0652 35.3758 21.0076 35.3701 20.9736C35.4324 20.9855 35.5376 20.9942 35.6872 21.0021C35.8344 21.0092 35.9841 21.0123 36.137 21.0123H36.5479C36.7113 21.0123 36.8586 21.0092 36.9888 21.0021C37.1199 20.9942 37.2307 20.9823 37.3269 20.9665L37.3108 21.1417L37.3269 21.313C37.2638 21.3003 37.1554 21.2893 36.9993 21.279C36.8448 21.2727 36.6935 21.2672 36.5479 21.2672H36.3562C36.1904 21.2656 36.0343 21.2688 35.8895 21.2743L35.8733 22.5329L36.3522 22.5313C36.5123 22.5313 36.6749 22.5265 36.8424 22.5179C37.0098 22.5092 37.1255 22.4997 37.1894 22.4863L37.1724 22.6599L37.1894 22.8311C37.1255 22.8185 37.0098 22.809 36.8424 22.7996C36.6749 22.7917 36.5123 22.7869 36.3522 22.7869L35.8749 22.7854C35.8733 23.3235 35.8789 23.7914 35.8895 24.1875L36.2543 24.1923H36.4363C36.5997 24.1923 36.7712 24.1875 36.95 24.1773C37.1288 24.1655 37.2549 24.1536 37.3269 24.141C37.3164 24.1923 37.3108 24.2515 37.3108 24.3193L37.3269 24.4929C37.2509 24.4819 37.1336 24.4708 36.9775 24.4614C36.8205 24.4535 36.6766 24.4487 36.5479 24.4487H36.137C35.997 24.4487 35.8531 24.4535 35.705 24.4598C35.5554 24.4669 35.4445 24.4763 35.3701 24.4866Z" fill="white"/>
<path d="M41.1947 23.9446L41.1664 24.0914L41.1494 24.2413C40.9617 24.3368 40.77 24.4063 40.5726 24.4504C40.3768 24.4938 40.1576 24.5167 39.9182 24.5167C39.356 24.5167 38.9021 24.3558 38.5527 24.0378C38.204 23.719 38.0293 23.3023 38.0293 22.7887C38.0293 22.2395 38.2154 21.7952 38.585 21.4559C38.9555 21.1142 39.4393 20.9446 40.0338 20.9446C40.2636 20.9446 40.4747 20.9612 40.6705 20.999C40.8654 21.0338 41.0604 21.0914 41.2537 21.1663C41.2262 21.246 41.2028 21.3155 41.1842 21.3738C41.168 21.4322 41.1494 21.5009 41.1291 21.5837L41.0418 21.5893C40.9237 21.4591 40.774 21.3557 40.5912 21.2784C40.4132 21.201 40.2288 21.1616 40.0436 21.1616C39.6035 21.1616 39.2516 21.3076 38.9879 21.6027C38.7234 21.8946 38.5907 22.2844 38.5907 22.7729C38.5907 23.2148 38.7258 23.5793 38.9927 23.8673C39.2629 24.1538 39.6019 24.2982 40.0144 24.2982C40.2312 24.2982 40.4383 24.2619 40.643 24.1893C40.8428 24.1151 41.0127 24.0157 41.1494 23.8894L41.1947 23.9446Z" fill="white"/>
<path d="M42.8098 23.8465C42.8138 23.5143 42.8179 23.1442 42.8179 22.7371C42.8187 22.1674 42.8138 21.6765 42.8009 21.2647L42.5145 21.267C42.3373 21.267 42.161 21.2725 41.983 21.2812C41.8059 21.2899 41.6853 21.3009 41.623 21.3136L41.64 21.1392L41.623 20.9672C41.8204 20.9798 42.0445 20.9893 42.2945 20.9987C42.5436 21.0074 42.7353 21.0129 42.8696 21.0129H43.012H43.1544C43.2976 21.0129 43.4966 21.0074 43.7465 20.9987C43.994 20.9893 44.2133 20.9798 44.4009 20.9672L44.384 21.1392L44.4009 21.3136C44.3346 21.3009 44.2149 21.2899 44.0361 21.2812C43.8598 21.2725 43.6826 21.267 43.5095 21.267H43.3056C43.2927 21.6765 43.287 22.1666 43.287 22.7347C43.287 23.1466 43.2911 23.5175 43.2967 23.8465C43.304 24.0603 43.3097 24.2087 43.3129 24.2908C43.3162 24.3744 43.321 24.432 43.3291 24.4636C43.2474 24.4549 43.156 24.4486 43.0524 24.4486C42.9505 24.4486 42.8567 24.4549 42.7774 24.4636C42.7823 24.432 42.7903 24.3728 42.7928 24.29C42.7968 24.2087 42.8025 24.0603 42.8098 23.8465Z" fill="white"/>
<path d="M47.2284 21.2891C47.3546 21.267 47.4905 21.2583 47.6393 21.2591C47.9063 21.2591 48.1199 21.3112 48.28 21.4169C48.4402 21.5203 48.5187 21.6592 48.5187 21.832C48.5187 22.0316 48.4337 22.1918 48.2582 22.3133C48.0851 22.4333 47.8521 22.4932 47.5625 22.4932H47.2284V21.2891ZM46.7422 24.2923C46.7366 24.3744 46.7309 24.4336 46.7236 24.4636L46.9882 24.4486L47.6749 24.4636C48.1199 24.4636 48.4782 24.3728 48.7557 24.1913C49.0307 24.0091 49.1699 23.7715 49.1699 23.4804C49.1699 23.1726 49.0509 22.9438 48.8123 22.7915C48.6513 22.6881 48.4386 22.6187 48.1724 22.5848C48.3609 22.5437 48.5227 22.4798 48.6635 22.3899C48.9199 22.2257 49.0477 22.0127 49.0477 21.7507C49.0477 21.4982 48.9409 21.3112 48.7282 21.1857C48.5154 21.0603 48.1943 20.9971 47.7655 20.9971L46.9882 21.0121L46.7236 20.9971C46.7309 21.0287 46.7366 21.0832 46.7406 21.1684C46.7455 21.2497 46.7511 21.4004 46.756 21.6174C46.7641 21.944 46.7681 22.3165 46.7657 22.7308C46.7657 23.1395 46.7625 23.5104 46.756 23.8449C46.7511 24.0596 46.7455 24.2095 46.7422 24.2923ZM47.2284 22.7489H47.5892C47.9354 22.7489 48.1983 22.8057 48.3747 22.9201C48.5534 23.0322 48.6408 23.2034 48.6408 23.4259C48.6408 23.6832 48.5502 23.8749 48.3674 24.0051C48.187 24.1353 47.9176 24.2008 47.5633 24.2008C47.4452 24.2008 47.3328 24.1929 47.2284 24.1787V22.7489Z" fill="white"/>
<path d="M51.3542 21.7223L51.8226 22.7236L51.876 22.842C51.7118 22.8609 51.5346 22.8728 51.3453 22.8767C51.152 22.8799 50.9772 22.8704 50.8171 22.8475L50.8753 22.7189C51.0444 22.3512 51.1301 22.1681 51.1301 22.1681C51.1301 22.1681 51.2045 22.0182 51.3542 21.7223ZM49.8035 24.3042C49.7574 24.3878 49.725 24.4423 49.708 24.4628C49.7703 24.4549 49.8431 24.4486 49.9232 24.4486C50.0041 24.4486 50.0769 24.4549 50.14 24.4628C50.1659 24.3641 50.1934 24.2726 50.2225 24.1897C50.2532 24.1061 50.301 23.9917 50.3665 23.8441C50.4539 23.6342 50.5558 23.4086 50.6674 23.1711C50.8656 23.1332 51.0937 23.119 51.3518 23.1277C51.6025 23.1316 51.8266 23.1458 52.0256 23.1711L52.3298 23.8441C52.4026 24.0043 52.4536 24.1258 52.4851 24.2095C52.5158 24.2923 52.5425 24.3783 52.5668 24.4628C52.6517 24.4549 52.7504 24.4486 52.8637 24.4486C52.9753 24.4486 53.0732 24.4549 53.1606 24.4628L52.8475 23.8441C52.6849 23.5175 52.5102 23.1513 52.3193 22.7426C51.9949 22.0545 51.7328 21.4793 51.533 21.0121H51.4666H51.4035C51.2045 21.4816 50.9368 22.0608 50.6019 22.7481C50.4045 23.1553 50.2209 23.5198 50.051 23.8441C49.9321 24.069 49.8488 24.2213 49.8035 24.3042Z" fill="white"/>
<path d="M54.2512 23.8452C54.2601 24.0543 54.2681 24.2011 54.273 24.2839C54.2779 24.3676 54.2851 24.426 54.2924 24.4639C54.2366 24.4544 54.1711 24.4489 54.0975 24.4489C54.0255 24.4489 53.9599 24.4544 53.9033 24.4639C53.9106 24.4315 53.9163 24.3755 53.9195 24.291C53.9227 24.2082 53.9284 24.0606 53.9357 23.8452C53.9405 23.513 53.943 23.1414 53.943 22.7334C53.943 22.3255 53.9405 21.9593 53.9357 21.6319C53.9284 21.4172 53.9227 21.2689 53.9195 21.186C53.9163 21.1032 53.9106 21.0448 53.9033 21.0132H53.9891H54.0724C54.5302 21.4969 55.1143 22.0887 55.8294 22.7886L56.7152 23.6472L56.716 22.765C56.716 22.3397 56.7136 21.957 56.7063 21.6161C56.6982 21.4007 56.6933 21.2515 56.6901 21.1679C56.6861 21.0858 56.6804 21.029 56.6731 20.9974C56.7297 21.0077 56.792 21.0132 56.8648 21.0132C56.9352 21.0132 56.9991 21.0077 57.0557 20.9974C57.0485 21.029 57.0436 21.0858 57.0396 21.1679C57.0331 21.2515 57.0307 21.4007 57.0226 21.6161C57.0177 21.9554 57.0137 22.3373 57.0137 22.7626C57.0137 23.4625 57.0226 24.0472 57.0371 24.5167H56.9595H56.881C56.424 24.0338 55.8383 23.442 55.124 22.7405L54.2342 21.8757V22.7318C54.2342 23.1453 54.2423 23.5162 54.2512 23.8452Z" fill="white"/>
<path d="M58.6981 23.8426C58.7053 24.058 58.711 24.2071 58.7158 24.2908C58.7175 24.372 58.7239 24.4312 58.7304 24.4636C58.6487 24.4541 58.5573 24.4486 58.4538 24.4486C58.3534 24.4486 58.2604 24.4541 58.1787 24.4636C58.186 24.4328 58.1917 24.3752 58.1949 24.2923C58.1981 24.2095 58.2038 24.0588 58.2111 23.8441C58.2167 23.5111 58.2192 23.1395 58.2192 22.7308C58.2192 22.3173 58.2167 21.9448 58.2111 21.6174C58.2038 21.3996 58.1981 21.2497 58.1949 21.1684C58.1917 21.0847 58.186 21.0287 58.1787 20.9964C58.2604 21.0066 58.3534 21.0114 58.4538 21.0114C58.5573 21.0114 58.6487 21.0066 58.7304 20.9964C58.7239 21.0295 58.7175 21.0871 58.7158 21.17C58.711 21.252 58.7053 21.4019 58.6981 21.6158C58.6908 21.9164 58.6892 22.2423 58.6908 22.5966H58.6981C58.9367 22.4064 59.2158 22.1595 59.5313 21.8588C59.8767 21.5306 60.1517 21.2497 60.362 21.0114H60.6444C60.7495 21.0114 60.845 21.0066 60.9267 20.9964C60.8903 21.0185 60.8231 21.069 60.7261 21.1518C60.6258 21.2331 60.4454 21.3893 60.1833 21.6158L59.7424 22.0072L59.1753 22.5311L59.7634 23.1884L60.3677 23.8426C60.5821 24.0761 60.7301 24.2347 60.807 24.3176C60.8854 24.4012 60.934 24.4486 60.9526 24.4636C60.8523 24.4541 60.739 24.4486 60.6112 24.4486C60.4818 24.4486 60.3677 24.4541 60.2674 24.4636C60.2148 24.3776 60.1566 24.2947 60.0886 24.2118C60.019 24.1306 59.9115 24.0075 59.7602 23.8426L59.4795 23.5332C59.1713 23.1987 58.9092 22.9225 58.6892 22.7016H58.6908L58.6875 22.7276C58.6875 23.1411 58.6908 23.5127 58.6981 23.8426Z" fill="white"/>
<path d="M61.6085 23.8433C61.6134 23.5104 61.6174 23.1411 61.6174 22.7315C61.6174 22.3165 61.6134 21.944 61.6085 21.6174C61.6029 21.4012 61.598 21.2536 61.594 21.1707C61.5883 21.0871 61.5826 21.0295 61.5762 20.9964C61.6579 21.0074 61.7509 21.0129 61.852 21.0129C61.9556 21.0129 62.0478 21.0074 62.1303 20.9964C62.1222 21.0295 62.1174 21.0871 62.1133 21.1707C62.1093 21.2536 62.1044 21.4012 62.0963 21.6174C62.0915 21.9472 62.0899 22.3188 62.0899 22.7284C62.0899 23.1426 62.0915 23.5143 62.0963 23.8433C62.1044 24.058 62.1093 24.2071 62.1133 24.2907C62.1174 24.3728 62.1222 24.4304 62.1303 24.4628C62.0478 24.4549 61.9556 24.4486 61.852 24.4486C61.7509 24.4486 61.6579 24.4549 61.5762 24.4628C61.5826 24.4304 61.5907 24.3728 61.594 24.29C61.598 24.2071 61.6029 24.058 61.6085 23.8433Z" fill="white"/>
<path d="M63.5936 23.8452C63.6017 24.0543 63.6082 24.2011 63.6138 24.2839C63.6195 24.3676 63.626 24.426 63.6341 24.4639C63.5774 24.4544 63.5119 24.4489 63.4391 24.4489C63.3655 24.4489 63.3024 24.4544 63.2441 24.4639C63.2506 24.4315 63.2571 24.3755 63.2595 24.291C63.2652 24.2082 63.2716 24.0606 63.2765 23.8452C63.2822 23.513 63.2838 23.1414 63.2838 22.7334C63.2838 22.3255 63.2822 21.9593 63.2765 21.6319C63.2716 21.4172 63.2652 21.2689 63.2595 21.186C63.2571 21.1032 63.2506 21.0448 63.2441 21.0132H63.3299H63.4132C63.8703 21.4969 64.4559 22.0887 65.1694 22.7886L66.056 23.6472L66.0593 22.765C66.0593 22.3397 66.056 21.957 66.0471 21.6161C66.0406 21.4007 66.0366 21.2515 66.0301 21.1679C66.0269 21.0858 66.0237 21.029 66.0156 20.9974C66.0706 21.0077 66.1345 21.0132 66.2049 21.0132C66.2769 21.0132 66.3424 21.0077 66.3966 20.9974C66.3893 21.029 66.3836 21.0858 66.3796 21.1679C66.3772 21.2515 66.3715 21.4007 66.3642 21.6161C66.3578 21.9554 66.3553 22.3373 66.3553 22.7626C66.3553 23.4625 66.3642 24.0472 66.3796 24.5167H66.3027H66.2235C65.7664 24.0338 65.1816 23.442 64.4664 22.7405L63.575 21.8757V22.7318C63.5774 23.1453 63.5831 23.5162 63.5936 23.8452Z" fill="white"/>
<path d="M69.2337 24.5171C68.6481 24.5171 68.1708 24.3561 67.8068 24.0381C67.4419 23.7209 67.2607 23.3051 67.2607 22.7906C67.2607 22.2422 67.4476 21.7979 67.823 21.4571C68.1983 21.1154 68.6869 20.9442 69.2904 20.9442C69.5711 20.9442 69.8299 20.9702 70.0686 21.0191C70.3056 21.0712 70.5296 21.1501 70.7448 21.2543C70.7173 21.334 70.6939 21.4026 70.6753 21.461C70.6567 21.5194 70.6389 21.5904 70.6194 21.6748L70.5313 21.6756C70.3816 21.5194 70.2036 21.3955 69.9877 21.3016C69.7765 21.2093 69.5638 21.1619 69.3526 21.1619C68.8899 21.1619 68.5178 21.3087 68.2387 21.6022C67.9597 21.895 67.8197 22.2864 67.8197 22.7764C67.8197 23.2372 67.9597 23.6073 68.2412 23.8835C68.5194 24.1604 68.8924 24.2985 69.3559 24.2985C69.6568 24.2985 69.9553 24.2433 70.2562 24.1312V23.7825C70.2562 23.5592 70.253 23.3848 70.2457 23.2617C70.2376 23.1378 70.2214 23.0029 70.1996 22.8545C70.2821 22.8656 70.3768 22.8687 70.4835 22.8687C70.5895 22.8687 70.6842 22.8656 70.7667 22.8545C70.7537 22.9113 70.7448 22.9823 70.7375 23.0644C70.7319 23.1473 70.7278 23.283 70.7246 23.4731V23.5639C70.7246 23.7943 70.7262 23.96 70.7303 24.0578C70.7351 24.1557 70.7448 24.2378 70.7594 24.3017C70.3177 24.4445 69.8097 24.5171 69.2337 24.5171Z" fill="white"/>
<path d="M73.9257 21.265C74.064 21.2516 74.2193 21.2445 74.39 21.2445C74.6861 21.2445 74.9102 21.3005 75.0631 21.4086C75.2143 21.5183 75.2904 21.6809 75.2904 21.8955C75.2904 22.1227 75.1998 22.3034 75.0161 22.4407C74.8333 22.5757 74.589 22.6435 74.2849 22.6435C74.157 22.6435 74.0365 22.6388 73.9257 22.6285V21.265ZM73.4387 24.2895C73.4338 24.3716 73.4282 24.4316 73.4209 24.4639C73.5026 24.4545 73.594 24.4489 73.6976 24.4489C73.8003 24.4489 73.8909 24.4545 73.9726 24.4639C73.9677 24.4324 73.9621 24.3756 73.9572 24.2919C73.9532 24.2098 73.9475 24.0607 73.9402 23.8437C73.9305 23.5494 73.9297 23.2188 73.9305 22.8542H73.9233C74.064 22.8732 74.2209 22.881 74.3981 22.8779C74.8511 22.8779 75.203 22.7903 75.4505 22.6143C75.7005 22.4384 75.8251 22.1906 75.8251 21.8687C75.8251 21.5728 75.7207 21.3542 75.5112 21.2106C75.2993 21.067 74.9757 20.9959 74.5381 20.9959C74.4709 20.9959 74.3981 20.9983 74.3172 20.9999C74.2387 21.0015 74.1514 21.0054 74.0551 21.0109C73.9823 21.0149 73.8941 21.0173 73.789 21.0173C73.683 21.0173 73.5608 21.0149 73.4209 21.0109C73.4282 21.0449 73.4338 21.1017 73.4379 21.1845C73.4403 21.2674 73.4468 21.4165 73.4533 21.6312C73.4613 21.9594 73.463 22.3279 73.463 22.7327C73.463 23.1422 73.4597 23.5115 73.4533 23.8437C73.4468 24.0583 73.4403 24.2067 73.4387 24.2895Z" fill="white"/>
<path d="M77.7663 21.7223L78.2371 22.7236L78.2897 22.842C78.1255 22.8609 77.9467 22.8728 77.7574 22.8767C77.5641 22.8799 77.3893 22.8704 77.2284 22.8475L77.2874 22.7189C77.4589 22.3512 77.5422 22.1681 77.5422 22.1681C77.5422 22.1681 77.6175 22.0182 77.7663 21.7223ZM76.2156 24.3042C76.1695 24.3878 76.1387 24.4423 76.1201 24.4628C76.184 24.4549 76.256 24.4486 76.3353 24.4486C76.4178 24.4486 76.4906 24.4549 76.5529 24.4628C76.578 24.3641 76.6055 24.2726 76.637 24.1897C76.6653 24.1061 76.7131 23.9917 76.7786 23.8441C76.866 23.6342 76.9679 23.4086 77.0803 23.1711C77.2801 23.1332 77.5083 23.119 77.7647 23.1277C78.0139 23.1316 78.2395 23.1458 78.4394 23.1711L78.7435 23.8441C78.8147 24.0043 78.8673 24.1258 78.8988 24.2095C78.9271 24.2923 78.9547 24.3783 78.9789 24.4628C79.0639 24.4549 79.1642 24.4486 79.2758 24.4486C79.3866 24.4486 79.4869 24.4549 79.5743 24.4628L79.2596 23.8441C79.0978 23.5175 78.9215 23.1513 78.7306 22.7426C78.4078 22.0545 78.1457 21.4793 77.9451 21.0121H77.8796H77.8157C77.6175 21.4816 77.3505 22.0608 77.014 22.7481C76.8166 23.1553 76.633 23.5198 76.4631 23.8441C76.3442 24.069 76.2609 24.2213 76.2156 24.3042Z" fill="white"/>
<path d="M80.7655 21.2473C80.9022 21.2386 81.0535 21.2315 81.2177 21.2299C81.5016 21.2299 81.7184 21.2836 81.8705 21.387C82.021 21.4919 82.0962 21.6418 82.0962 21.8399C82.0962 22.0506 81.9975 22.2218 81.8009 22.348C81.6044 22.4759 81.3415 22.5374 81.0139 22.5374C80.9257 22.5366 80.844 22.5398 80.7655 22.5453V21.2473ZM80.2785 24.2908C80.2737 24.376 80.268 24.4336 80.2607 24.4628C80.3424 24.4541 80.4339 24.4486 80.5374 24.4486C80.6401 24.4486 80.7332 24.4541 80.8132 24.4628C80.8076 24.4312 80.8019 24.3736 80.7971 24.2908C80.793 24.2095 80.7874 24.0603 80.7801 23.8441C80.7744 23.5246 80.7696 23.1632 80.7696 22.7647H80.7631H80.9483C81.1336 22.9675 81.3455 23.2073 81.5785 23.4843L81.8802 23.8441C82.0226 24.0098 82.1269 24.1345 82.19 24.2174C82.2539 24.2994 82.3098 24.3815 82.3543 24.4628C82.4538 24.4541 82.5662 24.4486 82.694 24.4486C82.821 24.4486 82.9343 24.4541 83.0321 24.4628C83.0103 24.447 82.9634 24.3957 82.8865 24.3144C82.8097 24.2308 82.6722 24.0753 82.4651 23.8441L82.1706 23.5088C81.9158 23.216 81.6982 22.958 81.517 22.7315C81.7775 22.6913 82.0024 22.6148 82.1925 22.5027C82.4861 22.3267 82.6317 22.0979 82.6317 21.8154C82.6317 21.5432 82.533 21.338 82.3348 21.2007C82.1367 21.0642 81.8373 20.9964 81.4361 20.9964C81.3746 20.9964 81.3018 20.9971 81.2193 21.0003C81.1392 21.0019 81.0486 21.0058 80.9483 21.0137C80.886 21.0145 80.7979 21.0145 80.6838 21.0137C80.5714 21.0114 80.429 21.005 80.2607 20.9964C80.268 21.0287 80.2737 21.0847 80.2777 21.1676C80.2802 21.2512 80.2866 21.4004 80.2931 21.6158C80.2996 21.9456 80.3028 22.3165 80.3028 22.7315C80.3028 23.1411 80.2996 23.5104 80.2931 23.8433C80.2866 24.0603 80.2802 24.2095 80.2785 24.2908Z" fill="white"/>
<path d="M84.4943 23.8465C84.5 23.5143 84.5024 23.1442 84.5024 22.7371C84.5032 22.1674 84.4984 21.6765 84.4854 21.2647L84.1999 21.267C84.0219 21.267 83.8456 21.2725 83.6676 21.2812C83.4904 21.2899 83.3699 21.3009 83.3076 21.3136L83.3246 21.1392L83.3076 20.9672C83.5066 20.9798 83.7291 20.9893 83.979 20.9987C84.2282 21.0074 84.4199 21.0129 84.5542 21.0129H84.6966H84.8389C84.9821 21.0129 85.1819 21.0074 85.4311 20.9987C85.6786 20.9893 85.8995 20.9798 86.0871 20.9672L86.0693 21.1392L86.0871 21.3136C86.02 21.3009 85.8995 21.2899 85.7207 21.2812C85.5443 21.2725 85.3672 21.267 85.1941 21.267H84.9902C84.9797 21.6765 84.9732 22.1666 84.9732 22.7347C84.9732 23.1466 84.9756 23.5175 84.9813 23.8465C84.9886 24.0603 84.9926 24.2087 84.9975 24.2908C85.0015 24.3744 85.0072 24.432 85.0137 24.4636C84.932 24.4549 84.8414 24.4486 84.7386 24.4486C84.6351 24.4486 84.5437 24.4549 84.462 24.4636C84.4684 24.432 84.4749 24.3728 84.4782 24.29C84.4814 24.2087 84.4879 24.0603 84.4943 23.8465Z" fill="white"/>
<path d="M87.1965 23.8452C87.2054 24.0543 87.211 24.2011 87.2183 24.2839C87.224 24.3676 87.2288 24.426 87.2385 24.4639C87.1795 24.4544 87.1156 24.4489 87.0428 24.4489C86.97 24.4489 86.9044 24.4544 86.8486 24.4639C86.8551 24.4315 86.8616 24.3755 86.864 24.291C86.868 24.2082 86.8745 24.0606 86.8794 23.8452C86.885 23.513 86.8891 23.1414 86.8891 22.7334C86.8891 22.3255 86.885 21.9593 86.8794 21.6319C86.8745 21.4172 86.868 21.2689 86.864 21.186C86.8616 21.1032 86.8551 21.0448 86.8486 21.0132H86.932H87.0161C87.4748 21.4969 88.0604 22.0887 88.7723 22.7886L89.6589 23.6472L89.6621 22.765C89.6621 22.3397 89.6589 21.957 89.6516 21.6161C89.6435 21.4007 89.6387 21.2515 89.6346 21.1679C89.6298 21.0858 89.6241 21.029 89.6184 20.9974C89.6735 21.0077 89.7366 21.0132 89.8102 21.0132C89.8814 21.0132 89.9428 21.0077 89.9995 20.9974C89.9922 21.029 89.9865 21.0858 89.9825 21.1679C89.9792 21.2515 89.9736 21.4007 89.9687 21.6161C89.9631 21.9554 89.959 22.3373 89.959 22.7626C89.959 23.4625 89.9687 24.0472 89.9825 24.5167H89.9048H89.8263C89.3685 24.0338 88.7844 23.442 88.0693 22.7405L87.1779 21.8757V22.7318C87.1795 23.1453 87.186 23.5162 87.1965 23.8452Z" fill="white"/>
<path d="M91.0166 24.4866C91.0215 24.455 91.0271 24.3967 91.0336 24.3138C91.036 24.2309 91.0425 24.0834 91.049 23.868C91.0546 23.531 91.057 23.1523 91.057 22.7293C91.057 22.3056 91.0546 21.9269 91.049 21.5923C91.0425 21.3792 91.036 21.2293 91.0336 21.1472C91.0271 21.0652 91.0215 21.0076 91.0166 20.9736C91.0805 20.9855 91.1857 20.9942 91.3337 21.0021C91.4809 21.0092 91.6322 21.0123 91.7835 21.0123H92.1944C92.3578 21.0123 92.5051 21.0092 92.6369 21.0021C92.7664 20.9942 92.8788 20.9823 92.9734 20.9665L92.9573 21.1417L92.9734 21.313C92.912 21.3003 92.8019 21.2893 92.6466 21.279C92.4929 21.2727 92.3417 21.2672 92.1944 21.2672H92.0027C91.8369 21.2656 91.6816 21.2688 91.5351 21.2743L91.519 22.5329L92.0011 22.5313C92.1588 22.5313 92.3214 22.5265 92.4889 22.5179C92.6563 22.5092 92.7712 22.4997 92.8351 22.4863L92.8189 22.6599L92.8351 22.8311C92.7712 22.8185 92.6563 22.809 92.4889 22.7996C92.3214 22.7917 92.1588 22.7869 92.0011 22.7869L91.5214 22.7854C91.5214 23.3235 91.5254 23.7914 91.5351 24.1875L91.9016 24.1923H92.082C92.2462 24.1923 92.4177 24.1875 92.5965 24.1773C92.7753 24.1655 92.9006 24.1536 92.9734 24.141C92.9629 24.1923 92.9573 24.2515 92.9573 24.3193L92.9734 24.4929C92.8966 24.4819 92.7801 24.4708 92.6256 24.4614C92.4695 24.4535 92.3247 24.4487 92.1944 24.4487H91.7835C91.6427 24.4487 91.4995 24.4535 91.3531 24.4598C91.2043 24.4669 91.0935 24.4763 91.0166 24.4866Z" fill="white"/>
<path d="M94.4241 21.2473C94.5608 21.2386 94.712 21.2315 94.8779 21.2299C95.1602 21.2299 95.377 21.2836 95.5291 21.387C95.6795 21.4919 95.7564 21.6418 95.7564 21.8399C95.7564 22.0506 95.6577 22.2218 95.4611 22.348C95.2637 22.4759 95 22.5374 94.6724 22.5374C94.5858 22.5366 94.5041 22.5398 94.4241 22.5453V21.2473ZM93.9371 24.2908C93.9322 24.376 93.9266 24.4336 93.9209 24.4628C94.001 24.4541 94.0924 24.4486 94.1959 24.4486C94.2987 24.4486 94.3917 24.4541 94.4734 24.4628C94.4661 24.4312 94.4605 24.3736 94.4556 24.2908C94.4516 24.2095 94.4459 24.0603 94.441 23.8441C94.433 23.5246 94.4289 23.1632 94.4289 22.7647H94.4241H94.6069C94.7921 22.9675 95.0033 23.2073 95.237 23.4843L95.5388 23.8441C95.6836 24.0098 95.7871 24.1345 95.8486 24.2174C95.9133 24.2994 95.9675 24.3815 96.0128 24.4628C96.1131 24.4541 96.2264 24.4486 96.3542 24.4486C96.4796 24.4486 96.5928 24.4541 96.6931 24.4628C96.6713 24.447 96.6219 24.3957 96.5475 24.3144C96.4707 24.2308 96.3307 24.0753 96.1244 23.8441L95.8316 23.5088C95.576 23.216 95.3568 22.958 95.1756 22.7315C95.4377 22.6913 95.6617 22.6148 95.851 22.5027C96.1463 22.3267 96.2919 22.0979 96.2919 21.8154C96.2919 21.5432 96.1916 21.338 95.9934 21.2007C95.7952 21.0642 95.4959 20.9964 95.0971 20.9964C95.0332 20.9964 94.9604 20.9971 94.8795 21.0003C94.7978 21.0019 94.7072 21.0058 94.6069 21.0137C94.5446 21.0145 94.4564 21.0145 94.3424 21.0137C94.2299 21.0114 94.0892 21.005 93.9209 20.9964C93.9266 21.0287 93.9322 21.0847 93.9371 21.1676C93.9419 21.2512 93.9468 21.4004 93.9516 21.6158C93.9581 21.9456 93.9613 22.3165 93.9613 22.7315C93.9613 23.1411 93.9581 23.5104 93.9516 23.8433C93.9468 24.0603 93.9419 24.2095 93.9371 24.2908Z" fill="white"/>
</svg>
