<svg width="32" height="32" viewBox="0 0 32 32" fill="none" xmlns="http://www.w3.org/2000/svg">
<rect x="6.13867" y="19.189" width="19.9878" height="10.9266" fill="white"/>
<path d="M15.7454 2.37907C15.0844 2.06913 14.8622 0.986857 15.3333 0.370701C15.917 -0.393098 17.1365 0.106996 17.1365 1.11025C17.1365 1.63646 16.8118 2.24609 16.4724 2.35695C16.2098 2.44277 16.1986 2.50579 16.2732 3.46574C16.4201 5.35711 17.1232 7.36149 17.9547 8.2596C18.4552 8.79994 19.2036 9.21395 19.68 9.21395C20.9181 9.21395 22.2298 7.74925 23.4615 4.99081L23.7705 4.29896L23.4964 3.94025C23.009 3.30264 23.2712 2.1111 23.9366 1.93921C24.9332 1.68176 25.6125 2.72992 25.1044 3.74104C24.9004 4.14679 24.6706 4.28364 24.193 4.28364C23.9252 4.28364 23.8673 4.38744 23.6917 5.18309C22.9173 8.69014 23.1387 10.8255 24.3372 11.4107C25.3557 11.9082 27.4249 11.3113 29.1458 10.0237C29.6152 9.67261 29.6961 9.54228 29.6961 9.13773C29.6961 7.95632 30.6187 7.35296 31.3205 8.07532C31.7762 8.54423 31.7696 9.49072 31.3075 9.96629C31.0339 10.2479 30.8998 10.2921 30.5336 10.2213L30.0907 10.1358L28.0802 14.2721L26.0699 18.4083H16.1007H6.13147L4.12749 14.2854L2.12353 10.1623L1.67656 10.2371C1.31246 10.2978 1.16757 10.248 0.89618 9.96869C0.431734 9.49072 0.423966 8.54543 0.880902 8.07532C1.59874 7.33644 2.50524 7.9306 2.50524 9.13986C2.50524 9.54189 2.58694 9.67314 3.05553 10.0237C4.08917 10.7971 5.69227 11.5057 6.57235 11.5785C8.12508 11.7068 8.80641 11.0082 8.94314 9.14746C9.06135 7.53978 8.48283 4.19556 8.11187 4.342C7.64069 4.52802 6.90757 3.7533 6.90757 3.06932C6.90757 1.91496 8.29457 1.44204 8.78983 2.42771C9.05669 2.95885 9.02522 3.52131 8.70502 3.94025L8.43091 4.29896L8.73985 4.99081C10.275 8.42843 11.8315 9.76695 13.3544 8.95918C14.6923 8.24934 15.6313 6.27295 15.9457 3.50438C16.0542 2.54897 16.0493 2.52152 15.7454 2.37907Z" fill="white"/>
<path d="M6.00121 31.5559C6.00121 31.3115 6.04005 31.0716 6.08757 31.0229C6.13496 30.974 10.6797 30.934 16.1871 30.934H26.2002V31.467V32H16.1007H6.00121V31.5559Z" fill="white"/>
<path d="M11.1207 14.9235C11.1207 14.5958 11.0219 14.3157 10.8294 14.0978C10.2856 13.4821 9.60763 13.5543 9.25 14.266C8.99622 14.771 8.99609 15.1202 9.24948 15.6244C9.78592 16.6919 11.1207 16.1919 11.1207 14.9235Z" fill="#FC7A69"/>
<path d="M17.1565 14.7596C17.1235 14.474 16.99 14.1356 16.86 14.0074C16.3341 13.4889 15.6694 13.6016 15.3356 14.266C15.0818 14.771 15.0817 15.1202 15.3351 15.6244C15.9106 16.7698 17.312 16.1046 17.1565 14.7596Z" fill="#FC7A69"/>
<path d="M23.0915 15.6244C23.3421 15.1255 23.3449 14.7713 23.1016 14.2873C22.5758 13.2408 21.2202 13.7151 21.2202 14.9457C21.2202 16.1942 22.5609 16.6803 23.0915 15.6244Z" fill="#FC7A69"/>
<path d="M13.2212 21.3986C13.4296 21.494 13.4289 21.4543 13.2094 20.7883L12.9746 20.0759L12.2743 20.0517C11.2239 20.0154 10.7749 20.2106 9.94583 21.0638C9.05021 21.9855 8.71564 22.9037 8.82453 24.1402C9.05552 26.7618 11.6728 28.3414 13.8046 27.1457C14.9807 26.486 14.9897 26.4597 14.5368 25.0335L14.1473 23.807L12.8282 23.769L11.5092 23.731V24.3353V24.9396H12.8687C13.8103 24.9396 14.2283 24.9869 14.2283 25.0935C14.2283 25.3929 13.1979 26.2589 12.7356 26.3482C11.2516 26.6347 9.95541 25.4277 9.95541 23.7595C9.95541 22.6451 10.7092 21.4867 11.5809 21.2615C11.9392 21.169 12.894 21.2488 13.2212 21.3986Z" fill="#FC7A69"/>
<path d="M16.8825 24.0402C16.6252 23.179 16.2532 21.9648 16.0558 21.3418L15.7581 20.123H14.9586C14.5341 20.1015 14.0259 20.123 14.0259 20.123L13.9689 21.2641C13.9689 22.5215 14.0689 22.4995 14.5192 23.807L15.0699 25.406L15.1415 23.6737C15.1845 22.6332 15.2532 22.0479 15.3138 22.2079C15.3691 22.3545 15.774 23.5838 16.2133 24.9396L17.0121 27.4048H17.4545C17.9506 27.4048 17.8269 27.6937 19.1084 23.5405L19.6017 21.9414L19.6664 24.6731L19.7312 27.4048L20.2815 27.4457L20.8318 27.4867V25.9988C20.8318 24.5236 20.8256 24.4932 20.0972 22.4267C19.6933 21.2804 19.324 20.2951 19.2766 20.2374C19.2292 20.1796 18.8168 21.3635 18.3602 22.8683C17.9036 24.3732 17.4896 25.6047 17.4402 25.6051C17.3907 25.6055 17.1398 24.9014 16.8825 24.0402Z" fill="#FC7A69"/>
<path d="M22.3829 20.376C22.9018 20.6442 23.4214 21.3707 23.4214 21.8279C23.4214 22.104 23.3605 22.1413 22.9106 22.1413C22.4807 22.1413 22.3727 22.0832 22.2299 21.7749C22.1037 21.5026 21.9498 21.3975 21.6317 21.3661C21.0843 21.3118 20.8323 21.6949 20.8359 22.0576C20.8398 22.4505 20.9569 22.6771 21.2387 22.8774C21.488 23.0545 21.6706 23.0105 22.1279 23.2458C22.9698 23.679 23.5989 24.3803 23.522 24.7997C23.5343 24.836 23.62 25.1865 23.5343 25.9467C23.4623 26.2356 23.3042 26.5965 23.1833 26.7486C22.8535 27.1632 22.2585 27.529 22.1376 27.3913C21.9509 27.1785 21.7444 26.4054 21.8744 26.4054C22.1136 26.4054 22.515 25.8677 22.515 25.5472C22.515 24.6482 21.8263 24.4459 21.5386 24.2837L20.8929 23.807L20.6482 23.1491C19.9601 21.2994 19.9707 20.7943 20.7063 20.3883C21.2642 20.0803 21.8035 20.0763 22.3829 20.376Z" fill="#FC7A69"/>
<path d="M10.3827 28.8039C10.3827 29.207 10.4069 29.3718 10.4366 29.1703C10.4662 28.9689 10.4662 28.6389 10.4366 28.4375C10.4069 28.236 10.3827 28.4008 10.3827 28.8039Z" fill="#FC7A69"/>
<path d="M11.9079 29.2037C11.8504 29.2037 11.6419 28.9638 11.4444 28.6707C11.247 28.3775 11.0352 28.1376 10.9736 28.1376C10.9121 28.1376 10.871 28.4825 10.8821 28.9038L10.9024 29.67L10.9792 29.0236L11.056 28.3772L11.5009 28.9903C11.7456 29.3275 11.9932 29.6034 12.0512 29.6034C12.1092 29.6034 12.1464 29.2586 12.1339 28.8372C12.1144 28.1727 12.1048 28.1462 12.0618 28.6373C12.0345 28.9489 11.9652 29.2037 11.9079 29.2037Z" fill="#FC7A69"/>
<path d="M13.0509 29.0091C13.1159 28.4491 13.1771 28.3341 13.4514 28.2561C13.6702 28.194 13.5442 28.1658 13.0629 28.1691C12.6713 28.1718 12.4818 28.1999 12.6421 28.2317C12.8962 28.2821 12.9361 28.3779 12.9538 28.9798L12.9741 29.67L13.0509 29.0091Z" fill="#FC7A69"/>
<path d="M14.0988 28.545C14.0988 28.3374 14.2076 28.2761 14.6491 28.2352L15.1994 28.1842L14.5843 28.161L13.9693 28.1376V28.8705V29.6034L14.5843 29.5801L15.1994 29.5569L14.6491 29.5059C14.2145 29.4655 14.0988 29.4022 14.0988 29.2045C14.0988 29.0218 14.2126 28.9396 14.5196 28.9002L14.9404 28.8465L14.5196 28.8252C14.1964 28.8088 14.0988 28.7439 14.0988 28.545Z" fill="#FC7A69"/>
<path d="M16.6446 28.9631C16.7476 28.8573 16.814 28.6432 16.7924 28.4874C16.759 28.246 16.6529 28.1983 16.0734 28.164L15.3936 28.1237L15.4086 28.8303C15.4169 29.2189 15.4503 29.4319 15.4828 29.3036C15.5653 28.9789 16.027 29.0122 16.4079 29.3702C16.6797 29.6258 16.7069 29.6321 16.5922 29.4127C16.492 29.221 16.5053 29.1067 16.6446 28.9631Z" fill="#FC7A69"/>
<path d="M17.2063 28.2856L17.8214 28.2356L18.4364 28.1856L17.7499 28.1616L17.0632 28.1376L17.1025 28.8372L17.1416 29.5368L17.7242 29.5477L18.3069 29.5585L17.7566 29.5071L17.2063 29.4555V28.8705V28.2856Z" fill="#FC7A69"/>
<path d="M18.786 28.5122C18.753 28.3349 18.8626 28.2761 19.3023 28.2356L19.8607 28.1842L19.2456 28.161L18.6306 28.1376V28.8705V29.6034L19.2456 29.5845L19.8607 29.5656L19.344 29.4846C18.9946 29.4298 18.8134 29.3281 18.7842 29.1703C18.7496 28.9834 18.8393 28.9337 19.2362 28.9196L19.7312 28.9021L19.2794 28.8196C19.0008 28.7689 18.8118 28.6511 18.786 28.5122Z" fill="#FC7A69"/>
<path d="M21.2816 29.0235C21.3986 28.9774 21.4792 28.7807 21.4792 28.5415C21.4792 28.1456 21.4662 28.1376 20.8318 28.1376H20.1844L20.202 28.9038C20.2117 29.3252 20.2448 29.5352 20.2758 29.3702C20.3497 28.9753 20.8951 28.9607 21.0967 29.3484C21.1762 29.5012 21.2739 29.5926 21.314 29.5514C21.3538 29.5103 21.3185 29.3922 21.2354 29.2891C21.1174 29.1428 21.1276 29.0844 21.2816 29.0235Z" fill="#FC7A69"/>
<path d="M22.3622 28.9126C22.3836 28.3415 22.4157 28.284 22.7416 28.2331C22.9375 28.2025 22.7772 28.1768 22.3855 28.1758C21.9939 28.1748 21.8015 28.1995 21.958 28.2308C22.1936 28.2778 22.2508 28.3948 22.2908 28.9122L22.3389 29.5368L22.3622 28.9126Z" fill="#FC7A69"/>
</svg>
