<svg width="53" height="63" viewBox="0 0 53 63" fill="none" xmlns="http://www.w3.org/2000/svg">
<path d="M26.4926 0L0 10.3059C0 10.3059 0 22.9409 0 26.4344C0 29.9279 0.582255 39.6516 5.4732 46.8715C12.1691 56.7699 26.4926 63 26.4926 63C26.4926 63 40.8161 56.7117 47.512 46.8715C52.403 39.6516 52.9852 29.9279 52.9852 26.4344C52.9852 22.9409 52.9852 10.3059 52.9852 10.3059L26.4926 0Z" fill="#DDF5F5"/>
<path d="M26.4926 4.25049L3.55176 13.159C3.55176 13.159 3.55176 24.1054 3.55176 27.1331C3.55176 30.1608 4.07579 38.6035 8.26802 44.8337C14.0324 53.3928 26.4344 58.8078 26.4344 58.8078C26.4344 58.8078 38.8364 53.3928 44.6007 44.8337C48.793 38.6035 49.317 30.1608 49.317 27.1331C49.317 24.1054 49.317 13.159 49.317 13.159L26.4926 4.25049Z" fill="#075955"/>
<path d="M26.4927 6.98706L5.88086 15.0222C5.88086 15.0222 5.88086 24.8623 5.88086 27.5989C5.88086 30.3355 6.34666 37.9048 10.1313 43.4945C15.3134 51.1802 26.4927 56.0712 26.4927 56.0712C26.4927 56.0712 37.672 51.1802 42.8541 43.4945C46.6387 37.9048 47.1045 30.3355 47.1045 27.5989C47.1045 24.8623 47.1045 15.0222 47.1045 15.0222L26.4927 6.98706Z" fill="#075955"/>
<path opacity="0.5" d="M26.4922 56.0712C26.4922 56.0712 37.6715 51.1802 42.8536 43.4945C46.6382 37.9048 47.104 30.3355 47.104 27.5989C47.104 24.8623 47.104 15.0222 47.104 15.0222L26.4922 6.98706V56.0712Z" fill="#054643"/>
<path d="M26.4929 44.8337C34.5322 44.8337 41.0493 38.3166 41.0493 30.2773C41.0493 22.2381 34.5322 15.7209 26.4929 15.7209C18.4536 15.7209 11.9365 22.2381 11.9365 30.2773C11.9365 38.3166 18.4536 44.8337 26.4929 44.8337Z" fill="#003F40"/>
<path d="M26.4922 44.8337C34.5273 44.8337 41.0486 38.3124 41.0486 30.2773C41.0486 22.2422 34.5273 15.7209 26.4922 15.7209V44.8337Z" fill="#003F40"/>
<path d="M36 26.8423C35.875 26.9673 35.75 27.0923 35.625 27.2172C32.0003 30.8419 28.3132 34.4666 24.6885 38.1537C24.376 38.4662 24.1886 38.4037 23.8761 38.1537C21.6263 35.9039 19.3765 33.5917 17.0643 31.3419C16.6893 30.9669 16.8143 30.7794 17.1267 30.4669C17.8142 29.842 18.4391 29.2171 19.064 28.5296C19.3765 28.1547 19.564 28.2172 19.939 28.5296C21.1889 29.842 22.5637 31.0919 23.8136 32.4668C24.1886 32.8417 24.3761 32.9042 24.751 32.4668C27.3758 29.7795 30.063 27.1548 32.6878 24.4675C33.0628 24.0925 33.3127 24.0925 33.6252 24.4675C34.2502 25.1549 34.9376 25.7799 35.5625 26.4048C35.8125 26.5298 35.875 26.6548 36 26.8423Z" fill="white"/>
</svg>
