<svg width="53" height="63" viewBox="0 0 53 63" fill="none" xmlns="http://www.w3.org/2000/svg">
<path d="M26.4926 0L0 10.3059C0 10.3059 0 22.9409 0 26.4344C0 29.9279 0.582255 39.6516 5.4732 46.8715C12.1691 56.7699 26.4926 63 26.4926 63C26.4926 63 40.8161 56.7117 47.512 46.8715C52.403 39.6516 52.9852 29.9279 52.9852 26.4344C52.9852 22.9409 52.9852 10.3059 52.9852 10.3059L26.4926 0Z" fill="#DDF5F5"/>
<path d="M26.4926 4.25049L3.55176 13.159C3.55176 13.159 3.55176 24.1054 3.55176 27.1331C3.55176 30.1608 4.07579 38.6035 8.26802 44.8337C14.0324 53.3928 26.4344 58.8078 26.4344 58.8078C26.4344 58.8078 38.8364 53.3928 44.6007 44.8337C48.793 38.6035 49.317 30.1608 49.317 27.1331C49.317 24.1054 49.317 13.159 49.317 13.159L26.4926 4.25049Z" fill="#075955"/>
<path d="M26.4927 6.98706L5.88086 15.0222C5.88086 15.0222 5.88086 24.8623 5.88086 27.5989C5.88086 30.3355 6.34666 37.9048 10.1313 43.4945C15.3134 51.1802 26.4927 56.0712 26.4927 56.0712C26.4927 56.0712 37.672 51.1802 42.8541 43.4945C46.6387 37.9048 47.1045 30.3355 47.1045 27.5989C47.1045 24.8623 47.1045 15.0222 47.1045 15.0222L26.4927 6.98706Z" fill="#075955"/>
<path opacity="0.5" d="M26.4922 56.0712C26.4922 56.0712 37.6715 51.1802 42.8536 43.4945C46.6382 37.9048 47.104 30.3355 47.104 27.5989C47.104 24.8623 47.104 15.0222 47.104 15.0222L26.4922 6.98706V56.0712Z" fill="#054643"/>
<path d="M26.4929 44.8337C34.5322 44.8337 41.0493 38.3166 41.0493 30.2773C41.0493 22.2381 34.5322 15.7209 26.4929 15.7209C18.4536 15.7209 11.9365 22.2381 11.9365 30.2773C11.9365 38.3166 18.4536 44.8337 26.4929 44.8337Z" fill="#003F40"/>
<path d="M26.4922 44.8337C34.5273 44.8337 41.0486 38.3124 41.0486 30.2773C41.0486 22.2422 34.5273 15.7209 26.4922 15.7209V44.8337Z" fill="#003F40"/>
<path d="M21.6078 27.3157C21.6078 26.675 21.6078 26.0344 21.6078 25.452C21.7243 23.1805 23.5297 21.2585 25.7429 20.9673C28.0726 20.6761 30.1693 22.0157 30.9265 24.1706C31.1594 24.7531 31.2177 25.3937 31.1594 26.0344C31.1594 26.3838 31.1594 26.7333 31.1594 27.141C31.1594 27.3157 31.2177 27.3157 31.3342 27.3739C32.5573 27.7234 33.1979 28.6552 33.1979 29.8783C33.1979 31.7421 33.1979 33.664 33.1979 35.5278C33.1979 37.0421 32.1495 38.0904 30.6353 38.0904C27.7232 38.0904 24.8693 38.0904 21.9572 38.0904C20.5594 38.0904 19.5111 37.1003 19.4529 35.7025C19.3946 33.664 19.3946 31.5673 19.4529 29.5289C19.4529 28.4223 20.21 27.6069 21.2583 27.3157C21.4331 27.3739 21.4913 27.3739 21.6078 27.3157ZM29.4704 27.2574C29.4704 26.6168 29.5287 25.9761 29.4704 25.3937C29.3539 24.1706 28.4221 23.064 27.2573 22.7728C25.976 22.4234 24.7528 22.8311 23.9374 23.8794C23.1221 24.9278 23.355 26.0926 23.355 27.2574C25.3935 27.2574 27.432 27.2574 29.4704 27.2574ZM26.9078 32.9069C27.7231 32.441 28.0727 31.8585 27.8397 31.1014C27.665 30.4607 27.0825 29.9948 26.4419 29.9948C25.8012 29.9948 25.1606 30.4607 24.9858 31.1014C24.8693 31.6838 24.9276 32.441 25.9177 32.9069C25.9177 33.0816 25.9177 33.3146 25.9177 33.4893C25.9177 34.13 25.9177 34.7706 25.9177 35.3531C25.9177 35.819 26.3254 36.052 26.6749 35.819C26.8496 35.7025 26.9078 35.4695 26.9078 35.2948C26.9078 34.4794 26.9078 33.7223 26.9078 32.9069Z" fill="white"/>
</svg>
