<svg width="53" height="63" viewBox="0 0 53 63" fill="none" xmlns="http://www.w3.org/2000/svg">
<path d="M26.4926 0L0 10.3059C0 10.3059 0 22.9409 0 26.4344C0 29.9279 0.582255 39.6516 5.4732 46.8715C12.1691 56.7699 26.4926 63 26.4926 63C26.4926 63 40.8161 56.7117 47.512 46.8715C52.403 39.6516 52.9852 29.9279 52.9852 26.4344C52.9852 22.9409 52.9852 10.3059 52.9852 10.3059L26.4926 0Z" fill="#DDF5F5"/>
<path d="M26.4926 4.25049L3.55176 13.159C3.55176 13.159 3.55176 24.1054 3.55176 27.1331C3.55176 30.1608 4.07579 38.6035 8.26802 44.8337C14.0324 53.3928 26.4344 58.8078 26.4344 58.8078C26.4344 58.8078 38.8364 53.3928 44.6007 44.8337C48.793 38.6035 49.317 30.1608 49.317 27.1331C49.317 24.1054 49.317 13.159 49.317 13.159L26.4926 4.25049Z" fill="#075955"/>
<path d="M26.4927 6.98706L5.88086 15.0222C5.88086 15.0222 5.88086 24.8623 5.88086 27.5989C5.88086 30.3355 6.34666 37.9048 10.1313 43.4945C15.3134 51.1802 26.4927 56.0712 26.4927 56.0712C26.4927 56.0712 37.672 51.1802 42.8541 43.4945C46.6387 37.9048 47.1045 30.3355 47.1045 27.5989C47.1045 24.8623 47.1045 15.0222 47.1045 15.0222L26.4927 6.98706Z" fill="#075955"/>
<path opacity="0.5" d="M26.4922 56.0712C26.4922 56.0712 37.6715 51.1802 42.8536 43.4945C46.6382 37.9048 47.104 30.3355 47.104 27.5989C47.104 24.8623 47.104 15.0222 47.104 15.0222L26.4922 6.98706V56.0712Z" fill="#054643"/>
<path d="M26.4929 44.8337C34.5322 44.8337 41.0493 38.3166 41.0493 30.2773C41.0493 22.2381 34.5322 15.7209 26.4929 15.7209C18.4536 15.7209 11.9365 22.2381 11.9365 30.2773C11.9365 38.3166 18.4536 44.8337 26.4929 44.8337Z" fill="#003F40"/>
<path d="M26.4922 44.8337C34.5273 44.8337 41.0486 38.3124 41.0486 30.2773C41.0486 22.2422 34.5273 15.7209 26.4922 15.7209V44.8337Z" fill="#003F40"/>
<path d="M23.9887 32.6645C23.9305 31.8493 23.4064 31.1506 22.2419 31.2089C22.2419 31.0924 22.2419 30.976 22.1837 30.8595C22.0673 30.2773 21.6015 29.9279 21.0774 29.695C20.3787 29.3457 19.68 29.4621 19.2142 30.1026C18.8066 30.6266 18.3991 31.0924 17.9915 31.6164C17.8168 31.4418 17.6421 31.3253 17.4674 31.2089C16.827 30.7431 16.1283 30.2773 15.4878 29.7532C15.1966 29.5203 15.1384 29.3457 15.3131 28.9963C15.9536 27.6571 16.5941 26.3179 17.2345 24.9205C17.351 24.6294 17.5839 24.5712 17.875 24.7458C18.3991 25.037 18.9231 25.3863 19.4471 25.6774C20.5534 26.3179 21.6597 26.3762 22.8824 25.9103C23.3482 25.7357 23.8722 25.6774 24.3381 25.561C24.2798 25.6192 24.2216 25.6774 24.2216 25.7357C23.814 26.1433 23.4064 26.5508 22.9989 26.9584C22.4166 27.4824 22.3584 28.1811 22.5331 28.8798C22.8824 30.0444 23.8722 30.7431 25.0368 30.6848C25.8519 30.6848 26.5506 30.3937 27.1329 29.8697C27.4822 29.5786 27.7734 29.2874 28.1227 29.0545C28.1809 28.9963 28.3556 28.9381 28.4138 28.9963C28.6467 29.0545 28.8214 29.171 28.9961 29.3457C30.2771 30.6848 31.6745 31.9076 33.0719 33.1303C33.3048 33.3632 33.5377 33.5961 33.5959 33.9455C33.6541 34.7606 33.0137 35.3429 32.1985 35.11C32.1403 35.11 32.0238 35.0518 31.9656 35.0518C31.9656 35.5176 31.8491 35.9251 31.4416 36.158C31.034 36.3909 30.6264 36.3909 30.1606 36.0416C30.2188 36.5074 30.0442 36.8567 29.6948 37.0896C29.3454 37.3225 28.9379 37.3225 28.5303 37.1479C28.4721 37.7301 28.1227 38.0213 27.5987 38.1959C27.1911 38.3124 26.8418 38.1377 26.4924 37.8466C26.7253 37.5555 27.0164 37.2061 27.2493 36.915C27.4822 36.6238 27.7151 36.3327 27.7151 35.9251C27.8316 35.1682 26.9582 33.9455 25.9101 34.0619C25.8519 34.0619 25.8519 34.0619 25.7937 34.0619C25.5026 33.0139 24.9203 32.5481 23.9887 32.6645Z" fill="white"/>
<path d="M28.1228 24.3383C28.5304 24.4548 28.9379 24.513 29.2873 24.6294C30.0442 24.8623 30.8594 25.1535 31.6745 25.1535C32.315 25.1535 32.839 24.9206 33.3048 24.5712C33.8289 24.2801 34.3529 23.9307 34.8187 23.5814C35.2263 23.2902 35.401 23.3485 35.6339 23.756C35.9832 24.4548 36.3326 25.1535 36.6819 25.8522C36.9731 26.4344 37.3224 27.0167 37.6135 27.5989C37.7882 28.0065 37.7882 28.123 37.4389 28.4141C36.2161 29.4039 35.0516 30.3355 33.8289 31.3254C33.5377 31.5583 33.4213 31.5583 33.1302 31.3254C31.9657 30.2191 30.7429 29.1128 29.5784 28.0065C28.9379 27.4243 28.0645 27.4243 27.4241 28.0065C26.9583 28.4141 26.4925 28.7634 25.9684 29.1128C25.5608 29.4039 25.095 29.4621 24.6292 29.3457C24.2217 29.2875 23.7559 28.7634 23.7559 28.3559C23.7559 28.2394 23.8141 28.0647 23.9305 27.9483C25.0368 26.842 26.1431 25.7357 27.2494 24.5712C27.5405 24.4548 27.7734 24.3383 28.1228 24.3383Z" fill="white"/>
<path d="M18.3994 33.1303C18.4576 32.9556 18.5159 32.7809 18.6323 32.6645C19.0399 32.1404 19.4475 31.6164 19.8551 31.1506C20.1462 30.8012 20.5538 30.743 20.9031 30.9759C21.1942 31.1506 21.3689 31.6164 21.2525 31.9075C21.1942 32.024 21.136 32.0822 21.0778 32.1987C20.6702 32.6645 20.2626 33.1885 19.8551 33.6543C19.5057 34.0619 19.0399 34.0619 18.6323 33.7707C18.5159 33.5378 18.3994 33.3632 18.3994 33.1303Z" fill="white"/>
<path d="M23.9305 33.7708C24.3963 33.829 24.6292 33.9454 24.7456 34.2948C24.8621 34.5859 24.8039 34.8188 24.6292 35.0517C24.2216 35.5757 23.814 36.0998 23.3482 36.6238C23.0571 36.9732 22.5913 36.9732 22.2419 36.682C21.9508 36.4491 21.8344 35.9833 22.0673 35.6922C22.5331 35.1099 22.9989 34.5859 23.4647 34.0037C23.6393 33.8872 23.814 33.829 23.9305 33.7708Z" fill="white"/>
<path d="M20.9028 35.3429C20.6117 35.2846 20.3788 35.1682 20.2041 34.8188C20.0877 34.5277 20.1459 34.2366 20.3206 34.0037C20.7282 33.5379 21.1357 33.0721 21.4851 32.548C21.6598 32.3151 21.9509 32.1987 22.242 32.2569C22.8243 32.3734 23.1154 33.1303 22.7078 33.5379C22.3585 33.9454 22.0091 34.4112 21.6598 34.8188C21.5433 35.1682 21.3104 35.3429 20.9028 35.3429Z" fill="white"/>
<path d="M26.6087 35.9833C26.5504 36.158 26.4922 36.3327 26.434 36.4491C26.0264 36.9731 25.6188 37.4972 25.153 38.0212C24.7455 38.487 24.105 38.3706 23.8721 37.9047C23.6974 37.6136 23.7556 37.2643 23.9885 37.0314C24.3961 36.5073 24.8037 36.0415 25.2113 35.5175C25.5606 35.1099 25.9682 35.1099 26.3758 35.4011C26.4922 35.5175 26.5504 35.7504 26.6087 35.9833Z" fill="white"/>
</svg>
