<svg width="76" height="29" viewBox="0 0 76 29" fill="none" xmlns="http://www.w3.org/2000/svg">
<path fill-rule="evenodd" clip-rule="evenodd" d="M28.4898 0.398071C19.0555 0.941658 0.237912 2.01134 0.109489 2.01134C0.0492655 2.01134 0 2.05376 0 2.10553C0 2.24361 9.73133 28.7144 9.81311 28.7987C9.85116 28.8379 12.5207 28.0378 15.7454 27.0206C18.9701 26.0033 23.1863 24.6779 25.1148 24.0754C27.0434 23.4729 28.6531 22.9506 28.6919 22.9147C28.7309 22.8788 28.6252 22.6219 28.4574 22.3438C28.2894 22.0657 28.0603 21.5492 27.9483 21.196L27.7447 20.5538L26.7366 20.5507C25.5144 20.5468 24.2446 20.3747 23.1863 20.0696C21.1158 19.4727 19.6223 18.0481 19.1558 16.2254C18.9867 15.5644 18.9804 13.851 19.145 13.2345C19.5242 11.8138 20.5215 10.5717 21.9291 9.76743C23.0466 9.12887 24.8722 8.74488 26.7804 8.74707C28.1265 8.74864 28.8716 8.83084 29.5942 9.0576L30.0677 9.20618V10.7246C30.0677 11.5597 30.0553 12.243 30.0403 12.243C30.0252 12.243 29.8016 12.1413 29.5432 12.017C28.0889 11.317 26.1336 11.2854 25.0079 11.9435C23.7937 12.6534 23.2153 14.1306 23.6148 15.5016C23.9675 16.7116 25.2551 17.6575 26.7609 17.8125C27.5362 17.8924 29.2921 17.6355 30.0896 17.3256C30.3182 17.2368 30.3307 17.2448 30.3307 17.4817C30.3307 17.7041 30.3732 17.7422 30.7175 17.8287C30.9303 17.8821 31.3642 18.061 31.6818 18.2261L32.2592 18.5264V13.7231V8.91987H34.4507H36.6423L36.6472 12.4834C36.6519 15.9965 36.6544 16.044 36.8176 15.8284C36.9087 15.7081 37.6412 14.685 38.4455 13.5547C39.2499 12.4244 40.0251 11.3515 40.1682 11.1704L40.4285 10.8411L37.9884 5.42057L35.5483 0L35.2845 0.0109312C35.1393 0.0168778 32.0817 0.191165 28.4898 0.398071ZM35.5465 3.00433C36.5518 3.47263 37.0019 4.11521 37.063 5.16941C37.0985 5.78112 37.0775 5.90731 36.869 6.33232C36.4355 7.21643 35.6704 7.70152 34.61 7.76466C33.7783 7.81424 33.1968 7.62955 32.6371 7.13808C31.2455 5.91606 31.5618 3.85172 33.2638 3.04841C33.9707 2.71479 34.8871 2.69712 35.5465 3.00433ZM61.1435 4.22828C59.6505 4.61577 58.8235 5.63097 58.9294 6.9463C58.9532 7.2425 59.0344 7.60392 59.1099 7.74944C59.5047 8.51122 60.5245 9.1022 62.1776 9.52747C63.6522 9.90674 63.9925 10.1261 63.9925 10.6971C63.9925 11.0535 63.492 11.5382 63.1027 11.5591C62.0136 11.6173 61.5181 11.3166 61.2748 10.4496L61.1619 10.0473L60.7144 10.0934C60.4682 10.1186 59.8778 10.1641 59.4024 10.1944L58.5379 10.2494L58.5925 10.5894C58.7744 11.7243 59.4942 12.678 60.4271 13.0202C61.816 13.5295 63.9028 13.4759 65.0387 12.9017C66.2918 12.2682 66.9548 10.8543 66.5884 9.59681C66.2496 8.43452 65.3931 7.86522 63.1452 7.30843C61.7662 6.96685 61.4479 6.80463 61.4531 6.446C61.4613 5.87137 62.3159 5.58209 63.0729 5.89761C63.3874 6.02869 63.7286 6.4816 63.7291 6.76869C63.7295 6.92453 63.783 6.93135 64.5842 6.87844C65.0542 6.8474 65.6514 6.82177 65.911 6.82151L66.3831 6.82107L66.3291 6.42808C66.2039 5.51667 65.5502 4.72053 64.6395 4.3703C64.2073 4.20406 63.9184 4.16733 62.8529 4.14328C62.0042 4.12413 61.4361 4.15237 61.1435 4.22828ZM69.9972 4.2267C68.9821 4.48363 68.1656 5.1458 67.8981 5.92865C67.5873 6.83848 67.7969 7.72119 68.4734 8.35249C69.0176 8.86031 69.7073 9.17601 71.0349 9.52458C72.515 9.91329 72.8462 10.1276 72.8462 10.6971C72.8462 11.0532 72.3458 11.5381 71.9565 11.5594C70.8868 11.6177 70.4019 11.3377 70.165 10.5248L70.0255 10.046L69.573 10.0927C69.3243 10.1184 68.7312 10.1642 68.2552 10.1944L67.3898 10.2495L67.4438 10.6423C67.5244 11.229 67.9697 12.0825 68.403 12.481C69.5141 13.5026 72.4034 13.6895 73.9958 12.8427C75.1823 12.2119 75.8001 10.8253 75.4421 9.59681C75.1048 8.43924 74.3073 7.90169 72.0871 7.33519C70.392 6.90267 70.1474 6.73494 70.4014 6.17893C70.6813 5.56591 72.0031 5.65432 72.4056 6.31299C72.5029 6.47215 72.5827 6.67722 72.5829 6.76869C72.5832 6.92453 72.6368 6.93135 73.4379 6.87844C73.908 6.8474 74.4997 6.82177 74.7528 6.82151C75.1792 6.82108 75.2131 6.80577 75.2131 6.61251C75.2131 5.74579 74.435 4.72447 73.5037 4.36872C73.0592 4.19898 72.7806 4.16383 71.7066 4.14179C70.8843 4.125 70.2808 4.155 69.9972 4.2267ZM49.5284 8.74033V13.2049L51.8733 13.2034C54.4202 13.2018 55.0399 13.1284 55.8144 12.7369C56.4199 12.4308 57.1813 11.5852 57.4181 10.9561C57.9425 9.56262 57.8785 7.5114 57.2704 6.22563C56.9425 5.53198 56.1926 4.80475 55.5326 4.54021C55.0228 4.33593 54.9259 4.32893 52.2678 4.30279L49.5284 4.27585V8.74033ZM54.1306 6.51972C54.699 6.81041 54.9103 7.33405 54.9501 8.55153C54.9854 9.62655 54.8866 10.1978 54.5945 10.6069C54.347 10.9536 54.0092 11.0767 53.1006 11.1513L52.3336 11.2143V8.74637V6.27845L53.0568 6.30941C53.565 6.33127 53.8842 6.39371 54.1306 6.51972ZM46.5171 7.75486C46.0555 7.83147 44.8902 8.37427 44.336 8.77077C42.2597 10.2561 40.0127 13.0863 37.08 17.9097C35.0738 21.2093 34.6924 21.8236 34.5737 21.947C34.4662 22.0587 34.3438 21.9674 33.6247 21.2383C32.5909 20.1901 31.998 19.6833 31.3337 19.28C30.8857 19.008 30.7607 18.9705 30.44 19.0123C29.5251 19.1313 29.0158 19.6576 29.0158 20.4841C29.0158 20.9364 29.0505 21.0142 29.5946 21.7812C30.9944 23.754 32.5095 25.4235 33.1612 25.7111C33.648 25.9259 34.8126 26.0252 35.2996 25.8933C35.9728 25.7111 36.3946 25.1056 38.7468 20.9442C40.6108 17.6466 41.8055 15.6555 42.892 14.0357C44.8575 11.1055 46.0996 9.68348 48.0382 8.14436C48.2169 8.00243 48.2366 7.94935 48.1449 7.85639C48.0299 7.73973 46.9962 7.67528 46.5171 7.75486ZM14.6832 9.16534C16.259 9.59603 17.234 10.2936 17.735 11.3488C17.9963 11.8989 18.0143 11.9989 18.0143 12.8988C18.0143 13.7577 17.9893 13.9139 17.7811 14.3571C17.0349 15.945 15.2142 16.8099 12.3164 16.9528L11.1768 17.009L11.153 18.7361L11.1293 20.4632H8.93957H6.74989V14.6855V8.9078L10.3659 8.94068C13.7581 8.97155 14.0253 8.98545 14.6832 9.16534ZM11.111 11.4178C11.0749 11.4548 11.0453 12.1521 11.0453 12.9673V14.4496L11.9103 14.4149C12.6788 14.3841 12.8167 14.3529 13.1454 14.136C13.8211 13.6898 14.0513 12.6808 13.6144 12.0799C13.3277 11.6856 12.6842 11.4277 11.8851 11.3867C11.4955 11.3668 11.1471 11.3808 11.111 11.4178ZM50.6242 14.7709C50.1786 14.8813 49.9743 15.0334 49.7917 15.3906C49.4365 16.0851 49.6309 16.9858 50.2208 17.3789C50.5798 17.6182 51.326 17.6494 51.7282 17.4419C51.9596 17.3226 52.3323 16.8558 52.3332 16.6844C52.3334 16.6502 52.1693 16.5781 51.9685 16.5241C51.6618 16.4418 51.5915 16.4475 51.5283 16.5602C51.1459 17.2418 50.4927 17.0132 50.4927 16.1977C50.4927 15.9611 50.5519 15.6956 50.6292 15.5855C50.8082 15.3305 51.2251 15.3248 51.4008 15.575C51.5104 15.7311 51.5837 15.7497 51.8879 15.6984C52.0884 15.6647 52.2459 15.589 52.2459 15.5264C52.2459 15.3834 51.9258 14.9759 51.735 14.8761C51.5045 14.7554 50.9128 14.6993 50.6242 14.7709ZM53.5261 14.7775C52.7285 15.0309 52.3765 16.0193 52.7845 16.8601C53.2236 17.7649 54.7154 17.8328 55.2904 16.9742C55.6968 16.3672 55.4901 15.268 54.9061 14.9319C54.5773 14.7426 53.881 14.6647 53.5261 14.7775ZM55.9277 16.1782V17.5774H56.2783H56.6289L56.6368 16.5936C56.6454 15.5294 56.6255 15.5122 56.9954 16.9043L57.1766 17.5867L57.4886 17.5602L57.8005 17.5337L58.0256 16.6592L58.2507 15.7847L58.2945 16.6592L58.3383 17.5337H58.689H59.0396L59.0638 16.1523L59.0879 14.7709L58.494 14.7968L57.9 14.8227L57.7247 15.4934C57.5195 16.2785 57.4603 16.368 57.3872 16.0035C57.3577 15.8559 57.2708 15.5201 57.1942 15.2572L57.0548 14.779H56.4912H55.9277V16.1782ZM59.6094 16.1782V17.5774H60.0477H60.486V17.0635V16.5497L60.9689 16.5097C61.7656 16.4438 62.174 15.8515 61.8516 15.2294C61.6481 14.8369 61.4734 14.779 60.4918 14.779H59.6094V16.1782ZM62.4146 16.1809V17.5828L63.4884 17.5582L64.5623 17.5337L64.5894 17.2057L64.6167 16.8778H63.9539H63.2912V15.8284V14.779H62.8529H62.4146V16.1809ZM65.0444 16.183V17.587L65.4608 17.5603L65.8772 17.5337L65.9013 16.1563L65.9255 14.779H65.4849H65.0444V16.183ZM67.1943 14.928C66.835 15.816 66.2716 17.3595 66.2716 17.4557C66.2716 17.5418 66.3882 17.5774 66.6707 17.5774C67.0353 17.5774 67.0776 17.5547 67.1614 17.315C67.2477 17.068 67.2802 17.0527 67.7181 17.0527C68.1559 17.0527 68.1884 17.068 68.2747 17.315C68.3578 17.5527 68.4025 17.5774 68.7508 17.5774C68.9622 17.5774 69.157 17.5557 69.1836 17.5292C69.2101 17.5026 69.0038 16.8829 68.7249 16.1519L68.218 14.8227L67.7379 14.7968C67.3429 14.7755 67.2465 14.7988 67.1943 14.928ZM69.5151 16.1782V17.5774H69.9062H70.2972L70.3225 16.8335L70.3479 16.0894L70.856 16.8335L71.3642 17.5774H71.7546H72.1449V16.1782V14.779H71.754H71.3631L71.3376 15.5005L71.3121 16.2219L70.802 15.5005C70.2941 14.7819 70.2904 14.779 69.9035 14.779H69.5151V16.1782ZM72.5122 15.1069C72.5391 15.4314 72.5438 15.4351 72.9531 15.4615L73.3667 15.4879L73.3914 16.5108L73.416 17.5337L73.8324 17.5603L74.2488 17.587V16.5328V15.4786H74.6871H75.1254V15.1288V14.779H73.8052H72.485L72.5122 15.1069ZM54.4374 15.566C54.5641 15.6924 54.6124 15.8563 54.6114 16.1563C54.6099 16.6216 54.5652 16.72 54.2898 16.8647C54.0161 17.0084 53.9305 16.9922 53.6884 16.7505C53.3709 16.434 53.4184 15.693 53.7712 15.458C53.9494 15.3393 54.2607 15.3897 54.4374 15.566ZM61.0558 15.6535C61.0558 15.8363 61.009 15.8766 60.7709 15.8995C60.5043 15.9252 60.486 15.9093 60.486 15.6535C60.486 15.3977 60.5043 15.3818 60.7709 15.4075C61.009 15.4304 61.0558 15.4707 61.0558 15.6535ZM67.9166 16.4028C67.8886 16.4308 67.7715 16.4409 67.6565 16.4252C67.4481 16.3969 67.4479 16.3956 67.5752 15.9596L67.7031 15.5223L67.8353 15.9371C67.9081 16.1652 67.9447 16.3748 67.9166 16.4028ZM42.575 16.8796C42.1908 17.3931 41.2664 18.8964 41.3088 18.9388C41.3317 18.9616 43.1164 18.4212 43.6301 18.2358C43.7036 18.2093 43.6258 17.9461 43.3785 17.3846C43.1816 16.9375 42.9939 16.5425 42.9616 16.5068C42.9291 16.4711 42.7552 16.6389 42.575 16.8796Z" fill="white"/>
<path fill-rule="evenodd" clip-rule="evenodd" d="M46.4916 7.63819C46.0299 7.7148 44.8647 8.2576 44.3105 8.6541C42.2342 10.1394 39.9872 12.9696 37.0545 17.793C35.0483 21.0927 34.6669 21.7069 34.5482 21.8303C34.4406 21.9421 34.3183 21.8507 33.5992 21.1216C32.5654 20.0735 31.9725 19.5666 31.3082 19.1634C30.8601 18.8913 30.7351 18.8539 30.4145 18.8956C29.4995 19.0146 28.9902 19.541 28.9902 20.3675C28.9902 20.8197 29.0249 20.8975 29.5691 21.6645C30.9688 23.6373 32.484 25.3068 33.1356 25.5944C33.6225 25.8093 34.7871 25.9085 35.274 25.7767C35.9473 25.5944 36.3691 24.9889 38.7213 20.8275C40.5853 17.5299 41.78 15.5388 42.8665 13.919C44.832 10.9888 46.0741 9.56681 48.0126 8.02769C48.1914 7.88576 48.2111 7.83268 48.1194 7.73972C48.0044 7.62306 46.9707 7.55861 46.4916 7.63819Z" fill="white"/>
</svg>
